<?xml version="1.0" encoding="iso-8859-1"?>
<!-- Uploaded to: SVG Repo, www.svgrepo.com, Generator: SVG Repo Mixer Tools -->
<svg height="800px" width="800px" version="1.1" id="Layer_1" xmlns="http://www.w3.org/2000/svg" xmlns:xlink="http://www.w3.org/1999/xlink" 
	 viewBox="0 0 512 512" xml:space="preserve">
<g transform="translate(1 1)">
	<path style="fill:#FFDD09;" d="M427.8,361.667l-0.853,0.853c-5.973,2.56-11.947,2.56-17.067,0.853l60.587,129.707
		c4.267,8.533,13.653,11.947,22.187,8.533c9.387-3.413,12.8-14.507,8.533-23.04L440.6,348.867
		C438.04,353.987,433.773,359.107,427.8,361.667"/>
	<path style="fill:#FD9808;" d="M501.187,478.573L440.6,348.867c-2.56,5.973-6.827,10.24-12.8,13.653l-0.853,0.853h-0.853
		L484.12,487.96c2.56,5.12,1.707,11.093,0,15.36c2.56,0,5.973,0,8.533-0.853C501.187,497.347,505.453,487.107,501.187,478.573"/>
	<path style="fill:#FFDD09;" d="M387.693,219.16c-3.413,8.533-9.387,15.36-17.92,19.627l-0.853,0.853
		c-9.387,3.413-18.773,3.413-27.307,0l52.053,110.933c5.973,11.947,20.48,17.92,33.28,12.8l0.853-0.853
		c5.973-2.56,11.093-7.68,12.8-14.507c2.56-6.827,1.707-13.653-0.853-19.627l-52.053-110.933
		C387.693,217.453,387.693,218.307,387.693,219.16"/>
	<path style="fill:#FD9808;" d="M438.893,329.24L386.84,218.307c0,0.853,0,1.707-0.853,2.56c-2.56,8.533-8.533,14.507-16.213,18.773
		l44.373,93.867c2.56,5.973,3.413,12.8,0.853,19.627c-1.707,4.267-4.267,8.533-7.68,11.093c5.973,2.56,12.8,2.56,18.773,0
		l0.853-0.853c5.973-2.56,11.093-7.68,12.8-14.507C442.307,342.893,442.307,335.213,438.893,329.24"/>
	<path style="fill:#FFDD09;" d="M385.987,192.707L331.373,75.8h-74.24L325.4,221.72c7.68,16.213,27.307,23.893,44.373,17.067
		l0.853-0.853c8.533-4.267,14.507-11.093,17.92-19.627C390.253,210.627,390.253,201.24,385.987,192.707"/>
	<path style="fill:#FD9808;" d="M388.547,192.707L333.08,75.8h-26.453l55.467,116.907c4.267,8.533,4.267,17.067,0.853,26.453
		c-3.413,8.533-9.387,15.36-17.92,19.627l-0.853,0.853c8.533,3.413,17.92,3.413,26.453,0l0.853-0.853
		c8.533-4.267,14.507-11.093,17.92-19.627C392.813,210.627,391.96,201.24,388.547,192.707"/>
	<path style="fill:#FFDD09;" d="M83.907,361.667h0.853c5.973,2.56,11.947,2.56,17.067,0.853L41.24,492.227
		c-4.267,8.533-13.653,11.947-22.187,8.533c-9.387-3.413-12.8-14.507-8.533-23.04l60.587-129.707
		C73.667,353.987,77.933,359.107,83.907,361.667"/>
	<path style="fill:#FFFFFF;" d="M10.52,477.72l60.587-128.853c2.56,5.973,6.827,10.24,12.8,13.653h0.853h0.853L27.587,487.107
		c-2.56,5.12-1.707,11.093,0,15.36c-2.56,0-5.973,0-8.533-0.853C10.52,497.347,6.253,487.107,10.52,477.72"/>
	<path style="fill:#FFDD09;" d="M124.867,218.307c3.413,8.533,9.387,15.36,17.92,19.627l0.853,0.853
		c9.387,3.413,18.773,3.413,27.307,0L118.893,349.72c-5.973,11.947-20.48,17.92-33.28,12.8l-0.853-0.853
		c-5.973-2.56-11.093-7.68-12.8-14.507c-2.56-6.827-1.707-13.653,0.853-19.627L124.867,216.6
		C124.013,217.453,124.013,217.453,124.867,218.307"/>
	<path style="fill:#FFFFFF;" d="M72.813,329.24l52.053-110.933c0,0.853,0,1.707,0.853,2.56c2.56,8.533,8.533,14.507,16.213,18.773
		L97.56,333.507c-2.56,5.973-3.413,12.8-0.853,19.627c1.707,4.267,4.267,8.533,7.68,11.093c-5.973,2.56-12.8,2.56-18.773,0
		l-0.853-0.853c-5.973-2.56-11.093-7.68-12.8-14.507C69.4,342.04,69.4,335.213,72.813,329.24"/>
	<path style="fill:#FFDD09;" d="M125.72,192.707L181.187,75.8h74.24L187.16,221.72c-7.68,16.213-27.307,23.893-44.373,17.067
		l-0.853-0.853c-8.533-4.267-14.507-11.093-17.92-19.627C121.453,209.773,121.453,200.387,125.72,192.707"/>
	<path style="fill:#FFFFFF;" d="M123.16,192.707L178.627,75.8h26.453l-55.467,116.907c-4.267,8.533-4.267,17.067-0.853,26.453
		c3.413,8.533,9.387,15.36,17.92,19.627l0.853,0.853c-8.533,3.413-17.92,3.413-26.453,0l-1.707-1.707
		c-8.533-4.267-14.507-11.093-17.92-19.627C118.893,209.773,119.747,200.387,123.16,192.707"/>
	<g>
		<path style="fill:#FCC309;" d="M255.427,340.333h-0.853c-5.973,0-11.947-2.56-16.213-6.827v83.627
			c0,9.387,6.827,16.213,16.213,17.067c9.387,0,17.92-7.68,17.92-17.067v-83.627C267.373,337.773,262.253,340.333,255.427,340.333"
			/>
		<path style="fill:#FCC309;" d="M279.32,236.227c-5.973,6.827-14.507,10.24-23.893,10.24h-1.707
			c-9.387,0-18.773-5.12-24.747-11.947v80.213c0,13.653,11.093,24.747,24.747,25.6h0.853c6.827,0,13.653-2.56,17.92-7.68
			c5.12-5.12,7.68-11.093,7.68-17.92V234.52C280.173,235.373,280.173,236.227,279.32,236.227"/>
		<path style="fill:#FCC309;" d="M256.28,75.8h-1.707l-33.28,70.827v65.707c0,17.92,14.507,33.28,32.427,34.133h1.707
			c9.387,0,17.92-3.413,23.893-10.24c6.827-6.827,10.24-15.36,10.24-23.893v-65.707L256.28,75.8z"/>
	</g>
	<path style="fill:#FFDD09;" d="M298.093,75.8H212.76V24.6c0-9.387,7.68-17.067,17.067-17.067h51.2
		c9.387,0,17.067,7.68,17.067,17.067V75.8z"/>
	<path style="fill:#FD9808;" d="M281.027,7.533h-25.6c9.387,0,17.067,7.68,17.067,17.067v51.2h25.6V24.6
		C298.093,15.213,290.413,7.533,281.027,7.533"/>
	<path d="M255.427,442.733h-0.853c-13.653-0.853-24.747-11.947-24.747-25.6v-83.627c0-3.413,1.707-6.827,5.12-7.68
		c3.413-1.707,6.827-0.853,9.387,1.707c1.707,1.707,5.973,4.267,10.24,4.267h0.853c4.267,0,7.68-1.707,11.093-4.267
		c2.56-2.56,5.973-2.56,9.387-1.707c3.413,1.707,5.12,4.267,5.12,7.68v83.627c0,6.827-2.56,13.653-7.68,18.773
		C268.227,440.173,262.253,442.733,255.427,442.733z M246.893,348.013v69.12c0,4.267,3.413,8.533,8.533,8.533
		c2.56,0,4.267-0.853,5.973-2.56s2.56-3.413,2.56-5.973v-69.12c-2.56,0.853-5.973,0.853-8.533,0.853h-0.853
		C252.013,348.867,249.453,348.867,246.893,348.013z"/>
	<path d="M255.427,348.867h-1.707c-17.92-0.853-32.427-15.36-32.427-34.133V234.52c0-3.413,2.56-6.827,5.12-7.68
		c3.413-0.853,6.827,0,9.387,2.56c5.12,5.12,11.093,8.533,17.92,8.533h0.853c6.827,0,12.8-2.56,17.92-7.68
		c0.853-0.853,0.853-0.853,0.853-1.707c2.56-2.56,5.973-3.413,9.387-2.56s5.973,4.267,5.973,7.68v81.067
		c0,9.387-3.413,17.92-10.24,23.893C273.347,345.453,264.813,348.867,255.427,348.867z M238.36,251.587v64
		c0,9.387,6.827,16.213,16.213,17.067h0.853c4.267,0,8.533-1.707,11.947-5.12c3.413-4.267,5.12-8.533,5.12-12.8v-63.147
		c-5.12,2.56-11.093,3.413-17.067,3.413h-1.707C248.6,255,243.48,253.293,238.36,251.587z"/>
	<path d="M485.827,511c-9.387,0-18.773-5.12-23.04-14.507L402.2,366.787c-1.707-3.413-1.707-6.827,0.853-9.387
		s5.973-3.413,8.533-2.56c2.56,0.853,6.827,1.707,11.093-0.853h0.853c3.413-1.707,6.827-5.12,8.533-8.533
		c1.707-3.413,4.267-5.12,7.68-5.12c3.413,0,6.827,1.707,7.68,5.12l60.587,129.707c3.413,5.973,3.413,13.653,0.853,20.48
		c-2.56,6.827-7.68,11.947-13.653,14.507C492.653,510.147,489.24,511,485.827,511z M423.533,371.907l54.613,116.907
		c1.707,4.267,6.827,5.973,11.093,4.267c2.56-0.853,3.413-2.56,4.267-5.12c0.853-2.56,0.853-4.267,0-6.827l-54.613-116.907
		c-2.56,1.707-4.267,3.413-6.827,4.267l0,0l-0.853,0.853C427.8,371.053,425.24,371.907,423.533,371.907z M427.8,361.667
		L427.8,361.667L427.8,361.667z"/>
	<path d="M416.707,372.76c-12.8,0-24.747-6.827-30.72-19.627L333.933,242.2c-1.707-3.413-0.853-6.827,1.707-9.387
		s5.973-3.413,9.387-1.707c6.827,2.56,13.653,2.56,20.48,0l0.853-0.853c5.973-2.56,10.24-7.68,12.8-14.507c0-0.853,0-0.853,0-1.707
		c0.853-3.413,4.267-5.973,7.68-5.973c3.413,0,6.827,1.707,8.533,5.12l52.053,110.933c4.267,8.533,4.267,17.067,0.853,26.453
		c-3.413,8.533-9.387,15.36-17.92,19.627l-0.853,0.853C426.093,371.907,420.973,372.76,416.707,372.76z M356.12,249.88
		l45.227,96.427c4.267,8.533,13.653,11.947,22.187,8.533h0.853c4.267-1.707,6.827-5.12,8.533-9.387s1.707-8.533-0.853-12.8
		L386.84,237.08c-3.413,4.267-8.533,7.68-13.653,10.24l-0.853-0.853C367.213,249.027,362.093,249.88,356.12,249.88z"/>
	<path d="M25.027,511c-3.413,0-6.827-0.853-10.24-1.707c-6.827-2.56-11.093-7.68-13.653-14.507s-2.56-13.653,0.853-20.48
		L62.573,344.6c1.707-2.56,4.267-4.267,7.68-4.267s5.973,1.707,7.68,5.12c1.707,4.267,4.267,6.827,8.533,8.533h0.853
		c4.267,1.707,8.533,0.853,11.093,0c3.413-0.853,6.827,0,8.533,2.56c2.56,2.56,2.56,5.973,0.853,9.387l-59.733,130.56
		C43.8,505.88,34.413,511,25.027,511z M71.96,365.08L17.347,481.987c-0.853,2.56-0.853,4.267,0,6.827
		c0.853,2.56,2.56,4.267,4.267,5.12c4.267,1.707,9.387,0,11.093-4.267L87.32,372.76c-2.56-0.853-4.267-0.853-6.827-1.707
		L79.64,370.2l0,0C77.08,368.493,74.52,366.787,71.96,365.08z"/>
	<path d="M94.147,372.76c-4.267,0-8.533-0.853-12.8-2.56l-0.853-0.853c-8.533-4.267-14.507-11.093-17.92-19.627
		c-3.413-8.533-3.413-17.067,0.853-25.6l52.053-110.933c1.707-3.413,5.12-5.12,8.533-5.12s6.827,2.56,7.68,5.973
		c0,0.853,0,0.853,0,1.707l0,0c2.56,6.827,6.827,11.947,12.8,14.507l0.853,0.853c5.973,2.56,13.653,2.56,20.48,0
		c3.413-1.707,6.827-0.853,9.387,1.707c2.56,2.56,3.413,5.973,1.707,9.387l-52.053,110.933
		C118.893,365.933,106.947,372.76,94.147,372.76z M123.16,235.373l-44.373,95.573c-2.56,4.267-2.56,9.387-0.853,13.653
		c1.707,4.267,4.267,7.68,8.533,9.387h0.853c8.533,3.413,17.92,0,22.187-8.533l45.227-96.427c-5.12,0-10.24-0.853-15.36-3.413
		l-1.707-0.853C131.693,243.053,127.427,239.64,123.16,235.373z"/>
	<path d="M355.267,249.88c-16.213,0-31.573-9.387-38.4-23.893L248.6,80.067c-0.853-2.56-0.853-5.973,0.853-8.533
		c1.707-2.56,4.267-4.267,6.827-4.267h74.24c3.413,0,5.973,1.707,7.68,5.12l55.467,116.907c5.12,10.24,5.12,22.187,1.707,32.427
		c-4.267,11.093-11.947,19.627-22.187,23.893l-0.853,0.853C366.36,249.027,361.24,249.88,355.267,249.88z M269.933,84.333
		l62.293,133.973c5.973,11.947,20.48,17.92,33.28,12.8l0.853-0.853c5.973-2.56,11.093-7.68,12.8-14.507
		c2.56-6.827,1.707-13.653-0.853-19.627l0,0L325.4,84.333H269.933z"/>
	<path d="M155.587,249.88c-5.12,0-11.093-0.853-16.213-3.413l-1.707-0.853c-10.24-5.12-17.92-13.653-22.187-23.893
		c-4.267-11.093-3.413-22.187,1.707-32.427l55.467-116.907c0.853-3.413,4.267-5.12,6.827-5.12h74.24c2.56,0,5.973,1.707,6.827,4.267
		c0.853,2.56,1.707,5.12,0.853,8.533l-68.267,145.92C187.16,241.347,171.8,249.88,155.587,249.88z M185.453,84.333L132.547,196.12
		c-2.56,5.973-3.413,12.8-0.853,19.627c2.56,6.827,6.827,11.947,12.8,14.507l0.853,0.853c12.8,5.12,27.307,0,33.28-12.8
		L240.92,84.333H185.453z"/>
	<path d="M255.427,255h-1.707c-23.04-0.853-40.96-19.627-40.96-42.667v-65.707c0-0.853,0-2.56,0.853-3.413l33.28-70.827
		c0.853-3.413,4.267-5.12,7.68-5.12h1.707c3.413,0,5.973,1.707,7.68,5.12l33.28,70.827c0.853,0.853,0.853,2.56,0.853,3.413v65.707
		c0,11.093-4.267,22.187-12.8,29.867C277.613,250.733,266.52,255,255.427,255z M229.827,148.333v64
		c0,13.653,11.093,24.747,24.747,25.6h0.853c6.827,0,12.8-2.56,17.92-7.68c5.12-5.12,7.68-11.093,7.68-17.92v-63.147l-25.6-54.613
		L229.827,148.333z"/>
	<path d="M298.093,84.333H212.76c-5.12,0-8.533-3.413-8.533-8.533V24.6c0-14.507,11.093-25.6,25.6-25.6h51.2
		c14.507,0,25.6,11.093,25.6,25.6v51.2C306.627,80.92,303.213,84.333,298.093,84.333z M221.293,67.267h68.267V24.6
		c0-5.12-3.413-8.533-8.533-8.533h-51.2c-5.12,0-8.533,3.413-8.533,8.533V67.267z"/>
</g>
</svg>