<?xml version="1.0" encoding="iso-8859-1"?>
<!-- Uploaded to: SVG Repo, www.svgrepo.com, Generator: SVG Repo Mixer Tools -->
<svg fill="#000000" height="800px" width="800px" version="1.1" id="Layer_1" xmlns="http://www.w3.org/2000/svg" xmlns:xlink="http://www.w3.org/1999/xlink" 
	 viewBox="0 0 301.566 301.566" xml:space="preserve">
<g>
	<g>
		<path d="M258.315,134.417l43.251-43.251h-44.623v-0.001l44.623-44.623H79.019L0,125.561h44.623L0,170.185h43.251L0,213.435h41.589
			L0,255.025h222.548l79.019-79.019h-41.589l41.589-41.589H258.315z M22.09,116.411l60.719-60.719h196.668l-60.719,60.719H22.09z
			 M22.09,161.035l35.473-35.473h164.984l25.246-25.246h31.683l-60.719,60.719H22.09z M279.476,185.155L279.476,185.155
			l-60.719,60.719H22.09l32.439-32.439h168.018l28.28-28.28H279.476z M218.757,204.285H22.09l34.101-34.101h166.357l26.618-26.618
			h30.31L218.757,204.285z"/>
	</g>
</g>
</svg>